<!DOCTYPE svg PUBLIC "-//W3C//DTD SVG 1.1//EN" "http://www.w3.org/Graphics/SVG/1.1/DTD/svg11.dtd">
<!-- Uploaded to: SVG Repo, www.svgrepo.com, Transformed by: SVG Repo Mixer Tools -->
<svg width="150px" height="150px" viewBox="-192 -192 2304.00 2304.00" xmlns="http://www.w3.org/2000/svg" fill="#000000" transform="rotate(0)">
<g id="SVGRepo_bgCarrier" stroke-width="0">
<path transform="translate(-192, -192), scale(72)" d="M16,31.751858311760074C19.492400281526432,31.728347488143136,21.635460692341606,28.14941142045899,24.308678498469366,25.90189745026113C26.97802557609898,23.657637803880238,30.96842146581062,22.179435585653998,31.487345866451403,18.730836935819102C32.004618727559084,15.293213867392502,28.847449189559164,12.56223965713276,26.730917878316223,9.804501674302363C24.942204131704006,7.473894131082713,23.172984371512527,4.813986110854726,20.307796955306138,4.164425137701015C17.591413745599446,3.5485992719390858,15.26448919083956,5.863573673219421,12.57712303727706,6.595722835347301C9.467943251858744,7.442791394196746,5.712997775960027,6.458646915146074,3.4534465347723486,8.756243979448776C0.9642688555830019,11.287333880834296,-0.15846922510848294,15.251146308226776,0.6702888215339069,18.703041687231725C1.4783956370569875,22.068921745407735,4.96102024021418,23.770694550855204,7.596919867121464,26.01440093721502C10.259913645076459,28.28117015916925,12.502969210681426,31.775400307935477,16,31.751858311760074" fill="#b5becd" strokewidth="0"/>
</g>
<g id="SVGRepo_tracerCarrier" stroke-linecap="round" stroke-linejoin="round"/>
<g id="SVGRepo_iconCarrier"> <g fill-rule="evenodd" clip-rule="evenodd" stroke="none" stroke-width="1"> <path d="M1468.235 113v99.388l-112.94 112.941v-99.388H112.94v1468.235h1242.353v-438.211l112.941-112.941v664.094H0V113h1468.235ZM421.271 1163.353c96-9.035 154.729 108.423 190.87 197.647 28.235 68.894 38.4 92.612 72.283 96 33.882 3.388 89.223-58.73 112.94-101.647 16.53-26.51 51.42-34.6 77.93-18.07 26.51 16.529 34.6 51.42 18.07 77.929-9.035 16.94-92.611 160.376-205.552 160.376h-9.036c-70.023-4.517-121.976-48.564-169.411-166.023-47.436-117.46-77.93-127.624-77.93-127.624a484.518 484.518 0 0 0-97.13 225.883c-6.549 31.187-37.14 51.16-68.329 44.611-31.187-6.55-51.16-37.141-44.611-68.33 20.33-94.87 79.059-310.587 199.906-320.752Zm256.376-485.647v112.941H338.824V677.706h338.823ZM903.53 451.824v112.94H338.824v-112.94h564.705Z"/> <path d="m1903.059 468.765-225.883-225.883a56.47 56.47 0 0 0-80.188 0L919.341 920.53a56.476 56.476 0 0 0-15.813 39.53v282.353h282.354a56.47 56.47 0 0 0 39.53-16.941l677.647-677.647c21.523-21.959 21.523-57.101 0-79.06Zm-740.894 660.706H1016.47V983.776l451.764-451.764 145.694 145.694-451.764 451.765Zm531.953-531.953-145.694-145.694 89.223-89.224 145.694 145.694-89.223 89.224Z"/> </g> </g>
</svg>