<!DOCTYPE svg PUBLIC "-//W3C//DTD SVG 1.1//EN" "http://www.w3.org/Graphics/SVG/1.1/DTD/svg11.dtd">
<!-- Uploaded to: SVG Repo, www.svgrepo.com, Transformed by: SVG Repo Mixer Tools -->
<svg fill="#000000" height="256px" width="256px" version="1.1" id="Layer_1" xmlns="http://www.w3.org/2000/svg" xmlns:xlink="http://www.w3.org/1999/xlink" viewBox="-51.2 -51.2 614.40 614.40" xml:space="preserve">
<g id="SVGRepo_bgCarrier" stroke-width="0">
<path transform="translate(-51.2, -51.2), scale(19.2)" d="M16,27.953675118324004C18.643242097154772,27.806765248312207,20.040047962421166,24.91152466949519,22.231844969273034,23.426823630621293C24.85463622206057,21.650171465484814,29.087355516633544,21.501917815026577,30.001920463513947,18.468916359451487C30.913654957063912,15.445301628242374,27.812155275026246,12.82675413099313,26.25698280409179,10.078128216984243C24.681704771094367,7.293967550441584,24.022624911389062,3.2770538472417825,20.93438867639495,2.4428785327923066C17.846120790276892,1.608694668936549,15.319859299287184,4.865732006491692,12.491260016730823,6.359816125230347C10.211107480824163,7.564207186632638,7.645621600048508,8.220983869134702,6.094812187368241,10.281237150003246C4.380157066407975,12.559159768754313,2.972492524174658,15.404636691738357,3.5873435536316993,18.188686233759583C4.192288120534432,20.92787924758775,6.953728981891588,22.41898511174078,9.158455645879915,24.15343506291524C11.272504244255124,25.816548930100602,13.3143216609576,28.102943570164612,16,27.953675118324004" fill="#b5becd" strokewidth="0"/>
</g>
<g id="SVGRepo_tracerCarrier" stroke-linecap="round" stroke-linejoin="round"/>
<g id="SVGRepo_iconCarrier"> <g> <g> <path d="M161.346,325.704v127.743c0,6.667,5.405,12.072,12.072,12.072c6.667,0,12.072-5.404,12.072-12.072V325.704H161.346z"/> </g> </g> <g> <g> <path d="M326.16,325.704v127.743h-0.001c0,6.667,5.404,12.072,12.072,12.072c6.668,0,12.072-5.404,12.072-12.072V325.704H326.16z"/> </g> </g> <g> <g> <path d="M205.694,325.704v145.62h-0.001c0,12.708,10.301,23.01,23.01,23.01s23.01-10.301,23.01-23.01v-145.62H205.694z"/> </g> </g> <g> <g> <path d="M261.647,325.704v145.62h-0.001c0,12.708,10.301,23.01,23.01,23.01c12.708,0,23.01-10.301,23.01-23.01v-145.62H261.647z"/> </g> </g> <g> <g> <circle cx="256.67" cy="98.495" r="39.739"/> </g> </g> <g> <g> <path d="M380.116,2.176c-9.39-4.896-20.971-1.251-25.867,8.138L280.96,150.897c-9.063,0-67.978,0-74.824,0 c-19.633,0-37.743,11.469-46.134,29.221c-3.623,7.664-25.287,53.492-28.34,59.952c-5.994,12.676,3.257,27.369,17.335,27.367 c0.016,0,0.032,0,0.048,0l73.748-0.185c10.59-0.026,19.153-8.632,19.126-19.222c-0.027-10.574-8.606-19.126-19.173-19.126 c-0.017,0-0.033,0-0.049,0l-43.392,0.108c8.658-18.314,6.823-14.433,15.366-32.505c0.051-0.107,0.103-0.214,0.157-0.32 c1.203-2.368,3.872-3.6,6.454-2.981c2.582,0.619,4.401,2.929,4.401,5.585v12.588l16.97-0.042c0.031,0,0.062,0,0.094,0 c20.25,0,36.688,16.388,36.739,36.649c0.018,7.136-2.006,13.797-5.513,19.444h53.273v-85.008 c2.008-2.383-4.062,8.799,81.008-154.379C393.15,18.652,389.506,7.07,380.116,2.176z"/> </g> </g> <g> <g> <path d="M445.925,284.938c-7.281,0-377.56,0-379.851,0c-6.422,0-11.627,5.206-11.627,11.627s5.206,11.629,11.627,11.629H78.59 v185.96c0,9.856,7.99,17.846,17.846,17.846c9.856,0,17.846-7.99,17.846-17.846v-185.96c12.719,0,271.305,0,284.484,0v185.96 c0,9.856,7.99,17.846,17.846,17.846s17.846-7.99,17.846-17.846v-185.96h11.467c6.422,0,11.627-5.206,11.627-11.629 C457.553,290.145,452.346,284.938,445.925,284.938z"/> </g> </g> </g>
</svg>