<!DOCTYPE svg PUBLIC "-//W3C//DTD SVG 1.1//EN" "http://www.w3.org/Graphics/SVG/1.1/DTD/svg11.dtd">
<!-- Uploaded to: SVG Repo, www.svgrepo.com, Transformed by: SVG Repo Mixer Tools -->
<svg height="256px" width="256px" version="1.1" id="Capa_1" xmlns="http://www.w3.org/2000/svg" xmlns:xlink="http://www.w3.org/1999/xlink" viewBox="-2.81 -2.81 33.67 33.67" xml:space="preserve" fill="#000000" stroke="#000000" stroke-width="0.00028054">
<g id="SVGRepo_bgCarrier" stroke-width="0" transform="translate(0,0), scale(1)">
<path transform="translate(-2.81, -2.81), scale(1.0521875)" d="M16,27.8396566696465C17.78212400211045,28.179895493003837,19.67453457325192,28.7035737440255,21.378122104901394,28.07946002215568C23.087282054244227,27.453304830574556,24.238270528396328,25.859613912932016,25.346433445738988,24.41556647430398C26.409998137125893,23.02963499764406,26.87184280395369,21.334304202359775,27.724482835261632,19.809515401321136C28.75437423479079,17.967745352266387,31.4258211813943,16.481847305155302,30.92976111694464,14.430818875104304C30.39861839811463,12.234736394762889,27.19052754506305,12.002528293800168,25.479432601784538,10.527047035594784C24.31610926412847,9.523910541803463,23.50901712606943,8.234338159105706,22.451624173246675,7.1201011302684964C21.218180169861096,5.8203487743439215,20.424079466498213,3.7996586179619896,18.685123927264222,3.3674851241117256C16.959831788350236,2.9387073234352927,15.394966989856716,4.605533269388962,13.64743283091604,4.932041661757101C11.851411838904864,5.267609309325415,9.78634256964695,4.34610576358168,8.239853163870434,5.3190741945496836C6.707993092050193,6.282838630939787,6.458220389411104,8.402150162606526,5.599584613897958,9.995317377150053C4.762068389844721,11.549298037940119,3.337959699956826,12.89499517901682,3.2079932225754497,14.655505910145433C3.0781744902662838,16.41401530377273,4.524324981370868,17.88491909975232,4.8898040913868694,19.609921479714654C5.300457728029706,21.548140330357217,4.0958641785053,24.056136226896346,5.496589949623727,25.457312888277364C6.9291453738095505,26.89032944861468,9.48847840213581,25.738579572141767,11.464551140648455,26.18678492426548C13.051108816635383,26.54664194165723,14.402005834198832,27.53457147127635,16,27.8396566696465" fill="#b5becd" strokewidth="0"/>
</g>
<g id="SVGRepo_tracerCarrier" stroke-linecap="round" stroke-linejoin="round" stroke="#CCCCCC" stroke-width="0.28054"/>
<g id="SVGRepo_iconCarrier"> <g> <path style="fill:#010002;" d="M27.961,1.867v11.204c0,0.319-0.258,0.578-0.578,0.578H12.144c-0.319,0-0.578-0.259-0.578-0.578 v-0.885l1.156-0.775v1.082h14.082V2.444H12.721v4.229c-0.051,0.039-0.106,0.073-0.154,0.117l-0.162,0.112 c-0.195-0.51-0.492-0.912-0.839-1.242V1.867c0-0.319,0.26-0.578,0.578-0.578h15.239C27.703,1.289,27.961,1.547,27.961,1.867z M14.316,9.461l0.692-0.464h-0.001c0.001-0.004,0.003-0.004,0.005-0.007c0.352-0.349,0.406-0.868,0.188-1.277l5.599-3.799 l-0.254-0.375l-5.646,3.83c-0.177-0.128-0.375-0.209-0.583-0.216c-0.296-0.01-0.597,0.09-0.823,0.317c0,0-0.005,0.006-0.007,0.006 l-0.138,0.096l-1.254,0.856V8.064c-0.233-2.769-3.442-2.728-3.442-2.728h-1.39L6.094,7.258L4.92,5.337H3.587 c-3.621,0.068-3.493,2.727-3.493,2.727v6.206h0.002c0.001,0.016-0.002,0.035-0.002,0.048c0,0.591,0.477,1.066,1.066,1.066 c0.587,0,1.064-0.477,1.064-1.066c0-0.013,0-0.032-0.002-0.048h0.002V8.53H2.89L2.882,26.613c0,0.795,0.646,1.441,1.438,1.441 c0.795,0,1.439-0.646,1.439-1.441v-11.67H6.4v11.683l0.012,0.013c0.01,0.781,0.646,1.415,1.432,1.415 c0.789,0,1.431-0.643,1.431-1.432L9.271,8.5h0.693v1.888c0,0.002,0,0.007,0,0.009c0,0.587,0.477,1.065,1.063,1.065 c0.173,0,0.328-0.049,0.475-0.125l0.005,0.007l1.84-1.234L14.316,9.461z M6.073,4.874c1.346,0,2.437-1.091,2.437-2.437 S7.419,0,6.073,0S3.636,1.092,3.636,2.437S4.727,4.874,6.073,4.874z"/> </g> </g>
</svg>